STARTFONT 2.1
FONT -sco-terminal-bold-r-normal--13-100-100-100-m-80-IBM437-1
SIZE 10 100 100
FONTBOUNDINGBOX 8 13 0 -3

STARTPROPERTIES 24
FONTNAME_REGISTRY ""
FAMILY_NAME "terminal"
FOUNDRY "sco"
WEIGHT_NAME "bold"
SETWIDTH_NAME "normal"
SLANT "r"
ADD_STYLE_NAME ""
PIXEL_SIZE 13
POINT_SIZE 100
RESOLUTION_X 100
RESOLUTION_Y 100
SPACING "M"
AVERAGE_WIDTH 80
CHARSET_REGISTRY "IBM437"
CHARSET_ENCODING "1"
CHARSET_COLLECTIONS "ASCII IBM437-1 ADOBE-STANDARD"
FULL_NAME "-sco-terminal-bold-r-normal--13-100-100-100-m-80-IBM437-1"
COPYRIGHT "Copyright (c) 1989 The Santa Cruz Operation, Inc."
WEIGHT 10
X_HEIGHT 10
QUAD_WIDTH 8
DEFAULT_CHAR 0
FONT_DESCENT 3
FONT_ASCENT 10
ENDPROPERTIES

CHARS 256

STARTCHAR code_0
ENCODING 0
SWIDTH 571 0
DWIDTH 8 0
BBX 8 13 0 -3
BITMAP
00
00
00
00
00
00
00
00
00
00
00
00
00
ENDCHAR

STARTCHAR code_1
ENCODING 1
SWIDTH 571 0
DWIDTH 8 0
BBX 8 13 0 -3
BITMAP
7E
C3
81
A5
A5
81
A5
BD
99
81
81
C3
7E
ENDCHAR

STARTCHAR code_2
ENCODING 2
SWIDTH 571 0
DWIDTH 8 0
BBX 8 13 0 -3
BITMAP
7E
FF
FF
DB
DB
FF
DB
C3
E7
FF
FF
FF
7E
ENDCHAR

STARTCHAR code_3
ENCODING 3
SWIDTH 571 0
DWIDTH 8 0
BBX 8 13 0 -3
BITMAP
00
66
FF
FF
FF
FF
7E
7E
3C
18
00
00
00
ENDCHAR

STARTCHAR code_4
ENCODING 4
SWIDTH 571 0
DWIDTH 8 0
BBX 8 13 0 -3
BITMAP
18
3C
7E
7E
FF
FF
7E
7E
3C
18
00
00
00
ENDCHAR

STARTCHAR code_5
ENCODING 5
SWIDTH 571 0
DWIDTH 8 0
BBX 8 13 0 -3
BITMAP
18
3C
7E
7E
3C
FF
FF
5A
18
18
3C
00
00
ENDCHAR

STARTCHAR code_6
ENCODING 6
SWIDTH 571 0
DWIDTH 8 0
BBX 8 13 0 -3
BITMAP
00
00
18
3C
7E
FF
FF
7E
18
18
3C
00
00
ENDCHAR

STARTCHAR code_7
ENCODING 7
SWIDTH 571 0
DWIDTH 8 0
BBX 8 13 0 -3
BITMAP
00
00
00
00
18
3C
18
00
00
00
00
00
00
ENDCHAR

STARTCHAR code_8
ENCODING 8
SWIDTH 571 0
DWIDTH 8 0
BBX 8 13 0 -3
BITMAP
FF
FF
FF
FF
FF
E7
C3
E7
FF
FF
FF
FF
FF
ENDCHAR

STARTCHAR code_9
ENCODING 9
SWIDTH 571 0
DWIDTH 8 0
BBX 8 13 0 -3
BITMAP
00
3C
3C
66
66
42
42
42
66
66
3C
3C
00
ENDCHAR

STARTCHAR code_10
ENCODING 10
SWIDTH 571 0
DWIDTH 8 0
BBX 8 13 0 -3
BITMAP
FF
C3
C3
99
99
BD
BD
BD
99
99
C3
C3
FF
ENDCHAR

STARTCHAR code_11
ENCODING 11
SWIDTH 571 0
DWIDTH 8 0
BBX 8 13 0 -3
BITMAP
00
1E
0E
0E
1A
78
CC
84
84
CC
78
00
00
ENDCHAR

STARTCHAR code_12
ENCODING 12
SWIDTH 571 0
DWIDTH 8 0
BBX 8 13 0 -3
BITMAP
3C
66
C3
C3
C3
66
3C
18
18
7E
18
18
00
ENDCHAR

STARTCHAR code_13
ENCODING 13
SWIDTH 571 0
DWIDTH 8 0
BBX 8 13 0 -3
BITMAP
30
3C
36
36
34
30
30
30
70
F0
E0
00
00
ENDCHAR

STARTCHAR code_14
ENCODING 14
SWIDTH 571 0
DWIDTH 8 0
BBX 8 13 0 -3
BITMAP
40
7F
63
63
7F
63
63
63
E3
E7
E7
07
00
ENDCHAR

STARTCHAR code_15
ENCODING 15
SWIDTH 571 0
DWIDTH 8 0
BBX 8 13 0 -3
BITMAP
00
00
00
DB
7E
7E
E7
7E
7E
DB
00
00
00
ENDCHAR

STARTCHAR code_16
ENCODING 16
SWIDTH 571 0
DWIDTH 8 0
BBX 8 13 0 -3
BITMAP
C0
E0
F0
F8
FC
FE
FC
F8
F0
E0
C0
00
00
ENDCHAR

STARTCHAR code_17
ENCODING 17
SWIDTH 571 0
DWIDTH 8 0
BBX 8 13 0 -3
BITMAP
06
0E
1E
3E
7E
FE
7E
3E
1E
0E
06
00
00
ENDCHAR

STARTCHAR code_18
ENCODING 18
SWIDTH 571 0
DWIDTH 8 0
BBX 8 13 0 -3
BITMAP
18
3C
7E
FF
18
18
18
FF
7E
3C
18
00
00
ENDCHAR

STARTCHAR code_19
ENCODING 19
SWIDTH 571 0
DWIDTH 8 0
BBX 8 13 0 -3
BITMAP
00
66
66
66
66
66
66
00
66
66
00
00
00
ENDCHAR

STARTCHAR code_20
ENCODING 20
SWIDTH 571 0
DWIDTH 8 0
BBX 8 13 0 -3
BITMAP
00
7F
DB
9B
DB
7F
1B
1B
1B
1B
00
00
00
ENDCHAR

STARTCHAR code_21
ENCODING 21
SWIDTH 571 0
DWIDTH 8 0
BBX 8 13 0 -3
BITMAP
00
FC
C6
80
F8
6C
3E
02
C6
7C
00
00
00
ENDCHAR

STARTCHAR code_22
ENCODING 22
SWIDTH 571 0
DWIDTH 8 0
BBX 8 13 0 -3
BITMAP
00
00
00
00
00
7E
7E
7E
7E
7E
00
00
00
ENDCHAR

STARTCHAR code_23
ENCODING 23
SWIDTH 571 0
DWIDTH 8 0
BBX 8 13 0 -3
BITMAP
18
3C
7E
FF
18
18
FF
7E
3C
18
00
FF
00
ENDCHAR

STARTCHAR code_24
ENCODING 24
SWIDTH 571 0
DWIDTH 8 0
BBX 8 13 0 -3
BITMAP
18
3C
7E
18
18
18
18
18
18
18
00
00
00
ENDCHAR

STARTCHAR code_25
ENCODING 25
SWIDTH 571 0
DWIDTH 8 0
BBX 8 13 0 -3
BITMAP
18
18
18
18
18
18
18
7E
3C
18
00
00
00
ENDCHAR

STARTCHAR code_26
ENCODING 26
SWIDTH 571 0
DWIDTH 8 0
BBX 8 13 0 -3
BITMAP
30
18
0C
0C
FE
FE
0C
1C
18
30
00
00
00
ENDCHAR

STARTCHAR code_27
ENCODING 27
SWIDTH 571 0
DWIDTH 8 0
BBX 8 13 0 -3
BITMAP
18
30
60
60
FE
FE
60
60
30
18
00
00
00
ENDCHAR

STARTCHAR code_28
ENCODING 28
SWIDTH 571 0
DWIDTH 8 0
BBX 8 13 0 -3
BITMAP
00
00
00
C0
C0
C0
C0
C0
FF
FF
00
00
00
ENDCHAR

STARTCHAR code_29
ENCODING 29
SWIDTH 571 0
DWIDTH 8 0
BBX 8 13 0 -3
BITMAP
00
00
24
24
66
FF
FF
66
24
24
00
00
00
ENDCHAR

STARTCHAR code_30
ENCODING 30
SWIDTH 571 0
DWIDTH 8 0
BBX 8 13 0 -3
BITMAP
00
00
18
3C
7E
FF
FF
FF
FF
00
00
00
00
ENDCHAR

STARTCHAR code_31
ENCODING 31
SWIDTH 571 0
DWIDTH 8 0
BBX 8 13 0 -3
BITMAP
00
00
FF
FF
FF
FF
7E
3C
18
00
00
00
00
ENDCHAR

STARTCHAR code_32
ENCODING 32
SWIDTH 571 0
DWIDTH 8 0
BBX 8 13 0 -3
BITMAP
00
00
00
00
00
00
00
00
00
00
00
00
00
ENDCHAR

STARTCHAR !
ENCODING 33
SWIDTH 571 0
DWIDTH 8 0
BBX 8 13 0 -3
BITMAP
00
30
30
30
30
30
30
30
00
30
30
00
00
ENDCHAR

STARTCHAR "
ENCODING 34
SWIDTH 571 0
DWIDTH 8 0
BBX 8 13 0 -3
BITMAP
00
00
6C
6C
6C
6C
00
00
00
00
00
00
00
ENDCHAR

STARTCHAR #
ENCODING 35
SWIDTH 571 0
DWIDTH 8 0
BBX 8 13 0 -3
BITMAP
00
00
6C
6C
FE
FE
6C
FE
EE
6C
6C
00
00
ENDCHAR

STARTCHAR $
ENCODING 36
SWIDTH 571 0
DWIDTH 8 0
BBX 8 13 0 -3
BITMAP
18
18
3E
7E
D8
D8
78
3E
36
FE
FC
30
30
ENDCHAR

STARTCHAR %
ENCODING 37
SWIDTH 571 0
DWIDTH 8 0
BBX 8 13 0 -3
BITMAP
00
20
70
DA
76
2C
18
30
68
DC
B6
1C
08
ENDCHAR

STARTCHAR &
ENCODING 38
SWIDTH 571 0
DWIDTH 8 0
BBX 8 13 0 -3
BITMAP
00
00
30
78
CC
CC
78
36
76
D8
FE
7E
00
ENDCHAR

STARTCHAR '
ENCODING 39
SWIDTH 571 0
DWIDTH 8 0
BBX 8 13 0 -3
BITMAP
00
1C
1C
1C
30
60
00
00
00
00
00
00
00
ENDCHAR

STARTCHAR (
ENCODING 40
SWIDTH 571 0
DWIDTH 8 0
BBX 8 13 0 -3
BITMAP
00
06
0C
18
18
30
30
30
18
18
0C
06
00
ENDCHAR

STARTCHAR )
ENCODING 41
SWIDTH 571 0
DWIDTH 8 0
BBX 8 13 0 -3
BITMAP
00
60
30
18
0C
06
06
06
0C
18
30
60
00
ENDCHAR

STARTCHAR *
ENCODING 42
SWIDTH 571 0
DWIDTH 8 0
BBX 8 13 0 -3
BITMAP
00
00
C6
6C
6C
FE
FE
6C
6C
C6
00
00
00
ENDCHAR

STARTCHAR +
ENCODING 43
SWIDTH 571 0
DWIDTH 8 0
BBX 8 13 0 -3
BITMAP
00
00
00
30
30
FC
FC
30
30
00
00
00
00
ENDCHAR

STARTCHAR ,
ENCODING 44
SWIDTH 571 0
DWIDTH 8 0
BBX 8 13 0 -3
BITMAP
00
00
00
00
00
00
00
38
38
38
30
60
00
ENDCHAR

STARTCHAR -
ENCODING 45
SWIDTH 571 0
DWIDTH 8 0
BBX 8 13 0 -3
BITMAP
00
00
00
00
00
7E
7E
00
00
00
00
00
00
ENDCHAR

STARTCHAR .
ENCODING 46
SWIDTH 571 0
DWIDTH 8 0
BBX 8 13 0 -3
BITMAP
00
00
00
00
00
00
00
00
38
38
38
00
00
ENDCHAR

STARTCHAR /
ENCODING 47
SWIDTH 571 0
DWIDTH 8 0
BBX 8 13 0 -3
BITMAP
00
02
06
06
0C
18
30
60
C0
C0
C0
80
00
ENDCHAR

STARTCHAR 0
ENCODING 48
SWIDTH 571 0
DWIDTH 8 0
BBX 8 13 0 -3
BITMAP
00
38
7C
C6
C6
C6
C6
C6
C6
7C
38
00
00
ENDCHAR

STARTCHAR 1
ENCODING 49
SWIDTH 571 0
DWIDTH 8 0
BBX 8 13 0 -3
BITMAP
00
18
38
78
18
18
18
18
18
7E
7E
00
00
ENDCHAR

STARTCHAR 2
ENCODING 50
SWIDTH 571 0
DWIDTH 8 0
BBX 8 13 0 -3
BITMAP
00
FC
FE
06
06
06
3C
78
C0
FE
FE
00
00
ENDCHAR

STARTCHAR 3
ENCODING 51
SWIDTH 571 0
DWIDTH 8 0
BBX 8 13 0 -3
BITMAP
00
FC
FE
06
06
3C
3C
06
06
FE
FC
00
00
ENDCHAR

STARTCHAR 4
ENCODING 52
SWIDTH 571 0
DWIDTH 8 0
BBX 8 13 0 -3
BITMAP
00
0C
0C
1C
3C
6C
CC
FE
FE
0C
0C
00
00
ENDCHAR

STARTCHAR 5
ENCODING 53
SWIDTH 571 0
DWIDTH 8 0
BBX 8 13 0 -3
BITMAP
00
FE
FE
C0
C0
FC
7E
06
06
FE
FC
00
00
ENDCHAR

STARTCHAR 6
ENCODING 54
SWIDTH 571 0
DWIDTH 8 0
BBX 8 13 0 -3
BITMAP
00
18
30
60
C0
C0
FC
FE
C6
FE
7C
00
00
ENDCHAR

STARTCHAR 7
ENCODING 55
SWIDTH 571 0
DWIDTH 8 0
BBX 8 13 0 -3
BITMAP
00
7E
7E
06
0C
18
18
30
30
30
30
00
00
ENDCHAR

STARTCHAR 8
ENCODING 56
SWIDTH 571 0
DWIDTH 8 0
BBX 8 13 0 -3
BITMAP
00
7C
FE
C6
C6
7C
7C
C6
C6
FE
7C
00
00
ENDCHAR

STARTCHAR 9
ENCODING 57
SWIDTH 571 0
DWIDTH 8 0
BBX 8 13 0 -3
BITMAP
00
3C
7E
C6
C6
C6
FE
7E
06
0C
18
30
00
ENDCHAR

STARTCHAR :
ENCODING 58
SWIDTH 571 0
DWIDTH 8 0
BBX 8 13 0 -3
BITMAP
00
00
00
38
38
38
00
00
38
38
38
00
00
ENDCHAR

STARTCHAR ;
ENCODING 59
SWIDTH 571 0
DWIDTH 8 0
BBX 8 13 0 -3
BITMAP
00
00
00
38
38
38
00
38
38
38
30
60
00
ENDCHAR

STARTCHAR <
ENCODING 60
SWIDTH 571 0
DWIDTH 8 0
BBX 8 13 0 -3
BITMAP
00
00
06
0C
18
30
60
30
18
0C
06
00
00
ENDCHAR

STARTCHAR =
ENCODING 61
SWIDTH 571 0
DWIDTH 8 0
BBX 8 13 0 -3
BITMAP
00
00
00
00
7E
7E
00
00
7E
7E
00
00
00
ENDCHAR

STARTCHAR >
ENCODING 62
SWIDTH 571 0
DWIDTH 8 0
BBX 8 13 0 -3
BITMAP
00
00
60
30
18
0C
06
0C
18
30
60
00
00
ENDCHAR

STARTCHAR ?
ENCODING 63
SWIDTH 571 0
DWIDTH 8 0
BBX 8 13 0 -3
BITMAP
00
3C
7E
C6
C6
06
0C
30
30
00
30
30
00
ENDCHAR

STARTCHAR @
ENCODING 64
SWIDTH 571 0
DWIDTH 8 0
BBX 8 13 0 -3
BITMAP
00
00
00
78
FC
86
36
7E
DE
DE
FE
76
00
ENDCHAR

STARTCHAR A
ENCODING 65
SWIDTH 571 0
DWIDTH 8 0
BBX 8 13 0 -3
BITMAP
00
38
7C
C6
C6
C6
FE
FE
C6
C6
C6
00
00
ENDCHAR

STARTCHAR B
ENCODING 66
SWIDTH 571 0
DWIDTH 8 0
BBX 8 13 0 -3
BITMAP
00
FC
FE
C6
C6
FE
FC
C6
C6
FE
FC
00
00
ENDCHAR

STARTCHAR C
ENCODING 67
SWIDTH 571 0
DWIDTH 8 0
BBX 8 13 0 -3
BITMAP
00
7E
FE
C0
C0
C0
C0
C0
C0
FE
7E
00
00
ENDCHAR

STARTCHAR D
ENCODING 68
SWIDTH 571 0
DWIDTH 8 0
BBX 8 13 0 -3
BITMAP
00
FC
FE
C6
C6
C6
C6
C6
C6
FE
FC
00
00
ENDCHAR

STARTCHAR E
ENCODING 69
SWIDTH 571 0
DWIDTH 8 0
BBX 8 13 0 -3
BITMAP
00
FE
FE
C0
C0
F8
F8
C0
C0
FE
FE
00
00
ENDCHAR

STARTCHAR F
ENCODING 70
SWIDTH 571 0
DWIDTH 8 0
BBX 8 13 0 -3
BITMAP
00
FE
FE
C0
C0
F8
F8
C0
C0
C0
C0
00
00
ENDCHAR

STARTCHAR G
ENCODING 71
SWIDTH 571 0
DWIDTH 8 0
BBX 8 13 0 -3
BITMAP
00
7C
FE
C6
C0
C0
DC
DE
C6
FE
7C
00
00
ENDCHAR

STARTCHAR H
ENCODING 72
SWIDTH 571 0
DWIDTH 8 0
BBX 8 13 0 -3
BITMAP
00
C6
C6
C6
C6
C6
FE
FE
C6
C6
C6
00
00
ENDCHAR

STARTCHAR I
ENCODING 73
SWIDTH 571 0
DWIDTH 8 0
BBX 8 13 0 -3
BITMAP
00
3C
18
18
18
18
18
18
18
18
3C
00
00
ENDCHAR

STARTCHAR J
ENCODING 74
SWIDTH 571 0
DWIDTH 8 0
BBX 8 13 0 -3
BITMAP
00
1C
0C
0C
0C
0C
0C
0C
6C
7C
38
00
00
ENDCHAR

STARTCHAR K
ENCODING 75
SWIDTH 571 0
DWIDTH 8 0
BBX 8 13 0 -3
BITMAP
00
C0
C2
C6
CC
D8
F0
F0
D8
CC
C6
00
00
ENDCHAR

STARTCHAR L
ENCODING 76
SWIDTH 571 0
DWIDTH 8 0
BBX 8 13 0 -3
BITMAP
00
60
60
60
60
60
60
60
60
7E
7E
00
00
ENDCHAR

STARTCHAR M
ENCODING 77
SWIDTH 571 0
DWIDTH 8 0
BBX 8 13 0 -3
BITMAP
00
82
C6
FE
FE
D6
C6
C6
C6
C6
C6
00
00
ENDCHAR

STARTCHAR N
ENCODING 78
SWIDTH 571 0
DWIDTH 8 0
BBX 8 13 0 -3
BITMAP
00
C6
C6
E6
E6
F6
DE
CE
CE
C6
C6
00
00
ENDCHAR

STARTCHAR O
ENCODING 79
SWIDTH 571 0
DWIDTH 8 0
BBX 8 13 0 -3
BITMAP
00
3C
7E
66
66
66
66
66
66
7E
3C
00
00
ENDCHAR

STARTCHAR P
ENCODING 80
SWIDTH 571 0
DWIDTH 8 0
BBX 8 13 0 -3
BITMAP
00
FC
FE
C6
C6
C6
FE
FC
C0
C0
C0
00
00
ENDCHAR

STARTCHAR Q
ENCODING 81
SWIDTH 571 0
DWIDTH 8 0
BBX 8 13 0 -3
BITMAP
00
7C
FE
C6
C6
C6
C6
D6
DE
FE
7E
06
00
ENDCHAR

STARTCHAR R
ENCODING 82
SWIDTH 571 0
DWIDTH 8 0
BBX 8 13 0 -3
BITMAP
00
7C
7E
66
66
66
7C
78
6C
66
66
00
00
ENDCHAR

STARTCHAR S
ENCODING 83
SWIDTH 571 0
DWIDTH 8 0
BBX 8 13 0 -3
BITMAP
00
7C
FC
C0
C0
FC
7E
06
06
FE
FC
00
00
ENDCHAR

STARTCHAR T
ENCODING 84
SWIDTH 571 0
DWIDTH 8 0
BBX 8 13 0 -3
BITMAP
00
7E
7E
18
18
18
18
18
18
18
18
00
00
ENDCHAR

STARTCHAR U
ENCODING 85
SWIDTH 571 0
DWIDTH 8 0
BBX 8 13 0 -3
BITMAP
00
C6
C6
C6
C6
C6
C6
C6
C6
FE
7C
00
00
ENDCHAR

STARTCHAR V
ENCODING 86
SWIDTH 571 0
DWIDTH 8 0
BBX 8 13 0 -3
BITMAP
00
C6
C6
C6
C6
6C
6C
6C
38
38
10
00
00
ENDCHAR

STARTCHAR W
ENCODING 87
SWIDTH 571 0
DWIDTH 8 0
BBX 8 13 0 -3
BITMAP
00
C6
C6
C6
C6
C6
D6
D6
FE
FE
6C
00
00
ENDCHAR

STARTCHAR X
ENCODING 88
SWIDTH 571 0
DWIDTH 8 0
BBX 8 13 0 -3
BITMAP
00
C6
C6
C6
6C
38
10
38
6C
C6
C6
00
00
ENDCHAR

STARTCHAR Y
ENCODING 89
SWIDTH 571 0
DWIDTH 8 0
BBX 8 13 0 -3
BITMAP
00
66
66
66
66
66
3C
18
18
18
18
00
00
ENDCHAR

STARTCHAR Z
ENCODING 90
SWIDTH 571 0
DWIDTH 8 0
BBX 8 13 0 -3
BITMAP
00
7E
7E
06
0C
18
18
30
60
7E
7E
00
00
ENDCHAR

STARTCHAR [
ENCODING 91
SWIDTH 571 0
DWIDTH 8 0
BBX 8 13 0 -3
BITMAP
00
7C
7C
60
60
60
60
60
60
7C
7C
00
00
ENDCHAR

STARTCHAR \
ENCODING 92
SWIDTH 571 0
DWIDTH 8 0
BBX 8 13 0 -3
BITMAP
00
80
C0
C0
60
30
18
0C
06
06
02
00
00
ENDCHAR

STARTCHAR ]
ENCODING 93
SWIDTH 571 0
DWIDTH 8 0
BBX 8 13 0 -3
BITMAP
00
78
78
18
18
18
18
18
18
78
78
00
00
ENDCHAR

STARTCHAR ^
ENCODING 94
SWIDTH 571 0
DWIDTH 8 0
BBX 8 13 0 -3
BITMAP
00
10
38
6C
C6
00
00
00
00
00
00
00
00
ENDCHAR

STARTCHAR _
ENCODING 95
SWIDTH 571 0
DWIDTH 8 0
BBX 8 13 0 -3
BITMAP
00
00
00
00
00
00
00
00
00
00
FF
FF
00
ENDCHAR

STARTCHAR `
ENCODING 96
SWIDTH 571 0
DWIDTH 8 0
BBX 8 13 0 -3
BITMAP
00
38
38
38
18
0C
00
00
00
00
00
00
00
ENDCHAR

STARTCHAR a
ENCODING 97
SWIDTH 571 0
DWIDTH 8 0
BBX 8 13 0 -3
BITMAP
00
00
00
7C
7E
06
7E
FE
C6
FE
7E
00
00
ENDCHAR

STARTCHAR b
ENCODING 98
SWIDTH 571 0
DWIDTH 8 0
BBX 8 13 0 -3
BITMAP
00
C0
C0
C0
FC
FE
C6
C6
C6
FE
FC
00
00
ENDCHAR

STARTCHAR c
ENCODING 99
SWIDTH 571 0
DWIDTH 8 0
BBX 8 13 0 -3
BITMAP
00
00
00
3C
7E
C6
C0
C0
C6
7E
3C
00
00
ENDCHAR

STARTCHAR d
ENCODING 100
SWIDTH 571 0
DWIDTH 8 0
BBX 8 13 0 -3
BITMAP
00
06
06
06
76
FE
C6
C6
C6
FE
7E
00
00
ENDCHAR

STARTCHAR e
ENCODING 101
SWIDTH 571 0
DWIDTH 8 0
BBX 8 13 0 -3
BITMAP
00
00
00
7C
FE
C6
FE
FC
C0
FE
7C
00
00
ENDCHAR

STARTCHAR f
ENCODING 102
SWIDTH 571 0
DWIDTH 8 0
BBX 8 13 0 -3
BITMAP
00
1C
3E
30
30
7C
7C
30
30
30
30
00
00
ENDCHAR

STARTCHAR g
ENCODING 103
SWIDTH 571 0
DWIDTH 8 0
BBX 8 13 0 -3
BITMAP
00
00
00
76
FE
C6
C6
C6
FE
7E
06
FE
FC
ENDCHAR

STARTCHAR h
ENCODING 104
SWIDTH 571 0
DWIDTH 8 0
BBX 8 13 0 -3
BITMAP
00
60
60
60
7C
7E
66
66
66
66
66
00
00
ENDCHAR

STARTCHAR i
ENCODING 105
SWIDTH 571 0
DWIDTH 8 0
BBX 8 13 0 -3
BITMAP
00
00
18
18
00
18
18
18
18
18
3C
00
00
ENDCHAR

STARTCHAR j
ENCODING 106
SWIDTH 571 0
DWIDTH 8 0
BBX 8 13 0 -3
BITMAP
00
00
18
18
00
18
18
18
18
18
18
F8
70
ENDCHAR

STARTCHAR k
ENCODING 107
SWIDTH 571 0
DWIDTH 8 0
BBX 8 13 0 -3
BITMAP
00
60
60
60
62
66
6C
78
78
6C
66
00
00
ENDCHAR

STARTCHAR l
ENCODING 108
SWIDTH 571 0
DWIDTH 8 0
BBX 8 13 0 -3
BITMAP
00
30
30
30
30
30
30
30
30
30
78
00
00
ENDCHAR

STARTCHAR m
ENCODING 109
SWIDTH 571 0
DWIDTH 8 0
BBX 8 13 0 -3
BITMAP
00
00
00
6C
EE
FE
D6
D6
C6
C6
C6
00
00
ENDCHAR

STARTCHAR n
ENCODING 110
SWIDTH 571 0
DWIDTH 8 0
BBX 8 13 0 -3
BITMAP
00
00
00
DC
FE
C6
C6
C6
C6
C6
C6
00
00
ENDCHAR

STARTCHAR o
ENCODING 111
SWIDTH 571 0
DWIDTH 8 0
BBX 8 13 0 -3
BITMAP
00
00
00
3C
7E
66
66
66
66
7E
3C
00
00
ENDCHAR

STARTCHAR p
ENCODING 112
SWIDTH 571 0
DWIDTH 8 0
BBX 8 13 0 -3
BITMAP
00
00
00
7C
FE
C6
C6
C6
FE
FC
C0
C0
C0
ENDCHAR

STARTCHAR q
ENCODING 113
SWIDTH 571 0
DWIDTH 8 0
BBX 8 13 0 -3
BITMAP
00
00
00
7C
FE
C6
C6
C6
FE
7E
06
06
06
ENDCHAR

STARTCHAR r
ENCODING 114
SWIDTH 571 0
DWIDTH 8 0
BBX 8 13 0 -3
BITMAP
00
00
00
6E
7E
70
60
60
60
60
60
00
00
ENDCHAR

STARTCHAR s
ENCODING 115
SWIDTH 571 0
DWIDTH 8 0
BBX 8 13 0 -3
BITMAP
00
00
00
3C
7C
60
78
3C
06
7E
7C
00
00
ENDCHAR

STARTCHAR t
ENCODING 116
SWIDTH 571 0
DWIDTH 8 0
BBX 8 13 0 -3
BITMAP
00
00
30
30
7C
7C
30
30
30
38
38
00
00
ENDCHAR

STARTCHAR u
ENCODING 117
SWIDTH 571 0
DWIDTH 8 0
BBX 8 13 0 -3
BITMAP
00
00
00
66
66
66
66
66
66
7E
3C
00
00
ENDCHAR

STARTCHAR v
ENCODING 118
SWIDTH 571 0
DWIDTH 8 0
BBX 8 13 0 -3
BITMAP
00
00
00
C6
C6
C6
C6
C6
6C
38
10
00
00
ENDCHAR

STARTCHAR w
ENCODING 119
SWIDTH 571 0
DWIDTH 8 0
BBX 8 13 0 -3
BITMAP
00
00
00
C6
C6
C6
C6
D6
D6
FE
6C
00
00
ENDCHAR

STARTCHAR x
ENCODING 120
SWIDTH 571 0
DWIDTH 8 0
BBX 8 13 0 -3
BITMAP
00
00
00
C6
C6
6C
38
38
6C
C6
C6
00
00
ENDCHAR

STARTCHAR y
ENCODING 121
SWIDTH 571 0
DWIDTH 8 0
BBX 8 13 0 -3
BITMAP
00
00
00
C6
C6
C6
C6
C6
FE
7E
06
FE
FC
ENDCHAR

STARTCHAR z
ENCODING 122
SWIDTH 571 0
DWIDTH 8 0
BBX 8 13 0 -3
BITMAP
00
00
00
7E
7E
06
0C
18
30
7E
7E
00
00
ENDCHAR

STARTCHAR {
ENCODING 123
SWIDTH 571 0
DWIDTH 8 0
BBX 8 13 0 -3
BITMAP
00
00
1E
3E
30
18
30
18
30
3E
1E
00
00
ENDCHAR

STARTCHAR |
ENCODING 124
SWIDTH 571 0
DWIDTH 8 0
BBX 8 13 0 -3
BITMAP
00
00
30
30
30
30
30
30
30
30
30
00
00
ENDCHAR

STARTCHAR }
ENCODING 125
SWIDTH 571 0
DWIDTH 8 0
BBX 8 13 0 -3
BITMAP
00
00
78
7C
0C
18
0C
18
0C
7C
78
00
00
ENDCHAR

STARTCHAR ~
ENCODING 126
SWIDTH 571 0
DWIDTH 8 0
BBX 8 13 0 -3
BITMAP
00
00
66
FE
D8
00
00
00
00
00
00
00
00
ENDCHAR

STARTCHAR code_127
ENCODING 127
SWIDTH 571 0
DWIDTH 8 0
BBX 8 13 0 -3
BITMAP
00
18
3C
7E
E7
C3
C3
C3
FF
FF
00
00
00
ENDCHAR

STARTCHAR code_128
ENCODING 128
SWIDTH 571 0
DWIDTH 8 0
BBX 8 13 0 -3
BITMAP
00
7C
C6
C6
C0
C0
C6
C6
7C
18
18
78
00
ENDCHAR

STARTCHAR code_129
ENCODING 129
SWIDTH 571 0
DWIDTH 8 0
BBX 8 13 0 -3
BITMAP
66
66
00
66
66
66
66
66
66
7E
3C
00
00
ENDCHAR

STARTCHAR code_130
ENCODING 130
SWIDTH 571 0
DWIDTH 8 0
BBX 8 13 0 -3
BITMAP
18
30
00
7C
FE
C6
FE
FC
C0
FE
7C
00
00
ENDCHAR

STARTCHAR code_131
ENCODING 131
SWIDTH 571 0
DWIDTH 8 0
BBX 8 13 0 -3
BITMAP
18
3C
00
7C
7E
06
7E
FE
C6
FE
7E
00
00
ENDCHAR

STARTCHAR code_132
ENCODING 132
SWIDTH 571 0
DWIDTH 8 0
BBX 8 13 0 -3
BITMAP
6C
6C
00
7C
7E
06
7E
FE
C6
FE
7E
00
00
ENDCHAR

STARTCHAR code_133
ENCODING 133
SWIDTH 571 0
DWIDTH 8 0
BBX 8 13 0 -3
BITMAP
30
18
00
7C
7E
06
7E
FE
C6
FE
7E
00
00
ENDCHAR

STARTCHAR code_134
ENCODING 134
SWIDTH 571 0
DWIDTH 8 0
BBX 8 13 0 -3
BITMAP
10
28
10
7C
7E
06
7E
FE
C6
FE
7E
00
00
ENDCHAR

STARTCHAR code_135
ENCODING 135
SWIDTH 571 0
DWIDTH 8 0
BBX 8 13 0 -3
BITMAP
00
00
00
3C
7E
C6
C0
C0
C6
7E
34
18
30
ENDCHAR

STARTCHAR code_136
ENCODING 136
SWIDTH 571 0
DWIDTH 8 0
BBX 8 13 0 -3
BITMAP
18
3C
00
7C
FE
C6
FE
FC
C0
FE
7C
00
00
ENDCHAR

STARTCHAR code_137
ENCODING 137
SWIDTH 571 0
DWIDTH 8 0
BBX 8 13 0 -3
BITMAP
6C
6C
00
7C
FE
C6
FE
FC
C0
FE
7C
00
00
ENDCHAR

STARTCHAR code_138
ENCODING 138
SWIDTH 571 0
DWIDTH 8 0
BBX 8 13 0 -3
BITMAP
70
38
00
7C
FE
C6
FE
FC
C0
FE
7C
00
00
ENDCHAR

STARTCHAR code_139
ENCODING 139
SWIDTH 571 0
DWIDTH 8 0
BBX 8 13 0 -3
BITMAP
6C
6C
00
00
38
18
18
18
18
18
3C
00
00
ENDCHAR

STARTCHAR code_140
ENCODING 140
SWIDTH 571 0
DWIDTH 8 0
BBX 8 13 0 -3
BITMAP
10
38
6C
00
38
18
18
18
18
18
3C
00
00
ENDCHAR

STARTCHAR code_141
ENCODING 141
SWIDTH 571 0
DWIDTH 8 0
BBX 8 13 0 -3
BITMAP
60
30
18
00
38
18
18
18
18
18
3C
00
00
ENDCHAR

STARTCHAR code_142
ENCODING 142
SWIDTH 571 0
DWIDTH 8 0
BBX 8 13 0 -3
BITMAP
6C
6C
00
38
6C
C6
C6
C6
FE
C6
C6
00
00
ENDCHAR

STARTCHAR code_143
ENCODING 143
SWIDTH 571 0
DWIDTH 8 0
BBX 8 13 0 -3
BITMAP
38
28
38
38
6C
EE
C6
C6
FE
C6
C6
00
00
ENDCHAR

STARTCHAR code_144
ENCODING 144
SWIDTH 571 0
DWIDTH 8 0
BBX 8 13 0 -3
BITMAP
0C
18
7E
62
60
60
78
60
60
62
7E
00
00
ENDCHAR

STARTCHAR code_145
ENCODING 145
SWIDTH 571 0
DWIDTH 8 0
BBX 8 13 0 -3
BITMAP
00
00
F6
77
19
7F
FE
98
99
FF
76
00
00
ENDCHAR

STARTCHAR code_146
ENCODING 146
SWIDTH 571 0
DWIDTH 8 0
BBX 8 13 0 -3
BITMAP
1F
3C
2C
6C
4C
5F
7C
4C
4C
CF
00
00
00
ENDCHAR

STARTCHAR code_147
ENCODING 147
SWIDTH 571 0
DWIDTH 8 0
BBX 8 13 0 -3
BITMAP
18
3C
00
3C
7E
66
66
66
66
7E
3C
00
00
ENDCHAR

STARTCHAR code_148
ENCODING 148
SWIDTH 571 0
DWIDTH 8 0
BBX 8 13 0 -3
BITMAP
66
66
00
3C
7E
66
66
66
66
7E
3C
00
00
ENDCHAR

STARTCHAR code_149
ENCODING 149
SWIDTH 571 0
DWIDTH 8 0
BBX 8 13 0 -3
BITMAP
60
30
00
3C
7E
66
66
66
66
7E
3C
00
00
ENDCHAR

STARTCHAR code_150
ENCODING 150
SWIDTH 571 0
DWIDTH 8 0
BBX 8 13 0 -3
BITMAP
10
38
6C
00
66
66
66
66
66
7E
3C
00
00
ENDCHAR

STARTCHAR code_151
ENCODING 151
SWIDTH 571 0
DWIDTH 8 0
BBX 8 13 0 -3
BITMAP
30
18
00
66
66
66
66
66
66
7E
3C
00
00
ENDCHAR

STARTCHAR code_152
ENCODING 152
SWIDTH 571 0
DWIDTH 8 0
BBX 8 13 0 -3
BITMAP
66
66
00
00
66
66
66
66
66
3E
06
66
3C
ENDCHAR

STARTCHAR code_153
ENCODING 153
SWIDTH 571 0
DWIDTH 8 0
BBX 8 13 0 -3
BITMAP
6C
6C
00
7C
C6
C6
C6
C6
C6
C6
7C
00
00
ENDCHAR

STARTCHAR code_154
ENCODING 154
SWIDTH 571 0
DWIDTH 8 0
BBX 8 13 0 -3
BITMAP
6C
6C
00
C6
C6
C6
C6
C6
C6
C6
7C
00
00
ENDCHAR

STARTCHAR code_155
ENCODING 155
SWIDTH 571 0
DWIDTH 8 0
BBX 8 13 0 -3
BITMAP
00
00
10
10
7C
EE
C0
C0
EE
7C
10
10
00
ENDCHAR

STARTCHAR code_156
ENCODING 156
SWIDTH 571 0
DWIDTH 8 0
BBX 8 13 0 -3
BITMAP
3C
66
60
60
F8
60
60
60
60
66
FE
80
00
ENDCHAR

STARTCHAR code_157
ENCODING 157
SWIDTH 571 0
DWIDTH 8 0
BBX 8 13 0 -3
BITMAP
00
C3
66
3C
18
18
7E
18
7E
18
18
00
00
ENDCHAR

STARTCHAR code_158
ENCODING 158
SWIDTH 571 0
DWIDTH 8 0
BBX 8 13 0 -3
BITMAP
F8
CC
CC
F8
C0
C6
CF
C6
C6
C6
00
00
00
ENDCHAR

STARTCHAR code_159
ENCODING 159
SWIDTH 571 0
DWIDTH 8 0
BBX 8 13 0 -3
BITMAP
0E
18
18
18
18
7E
18
18
18
D8
70
00
00
ENDCHAR

STARTCHAR code_160
ENCODING 160
SWIDTH 571 0
DWIDTH 8 0
BBX 8 13 0 -3
BITMAP
18
30
00
7C
7E
06
7E
FE
C6
FE
7E
00
00
ENDCHAR

STARTCHAR code_161
ENCODING 161
SWIDTH 571 0
DWIDTH 8 0
BBX 8 13 0 -3
BITMAP
06
0C
18
00
38
18
18
18
18
18
3C
00
00
ENDCHAR

STARTCHAR code_162
ENCODING 162
SWIDTH 571 0
DWIDTH 8 0
BBX 8 13 0 -3
BITMAP
18
30
00
3C
7E
66
66
66
66
7E
3C
00
00
ENDCHAR

STARTCHAR code_163
ENCODING 163
SWIDTH 571 0
DWIDTH 8 0
BBX 8 13 0 -3
BITMAP
18
30
00
66
66
66
66
66
66
7E
3C
00
00
ENDCHAR

STARTCHAR code_164
ENCODING 164
SWIDTH 571 0
DWIDTH 8 0
BBX 8 13 0 -3
BITMAP
24
58
00
DC
FE
C6
C6
C6
C6
C6
C6
00
00
ENDCHAR

STARTCHAR code_165
ENCODING 165
SWIDTH 571 0
DWIDTH 8 0
BBX 8 13 0 -3
BITMAP
24
58
00
C6
E6
F6
FE
DE
CE
C6
C6
00
00
ENDCHAR

STARTCHAR code_166
ENCODING 166
SWIDTH 571 0
DWIDTH 8 0
BBX 8 13 0 -3
BITMAP
00
00
00
7C
04
7C
44
7E
00
FE
00
00
00
ENDCHAR

STARTCHAR code_167
ENCODING 167
SWIDTH 571 0
DWIDTH 8 0
BBX 8 13 0 -3
BITMAP
00
00
00
70
D8
88
D8
70
00
F8
00
00
00
ENDCHAR

STARTCHAR code_168
ENCODING 168
SWIDTH 571 0
DWIDTH 8 0
BBX 8 13 0 -3
BITMAP
30
00
30
30
30
60
E0
C4
CC
78
00
00
00
ENDCHAR

STARTCHAR code_169
ENCODING 169
SWIDTH 571 0
DWIDTH 8 0
BBX 8 13 0 -3
BITMAP
00
00
00
00
00
FF
FF
C0
C0
C0
00
00
00
ENDCHAR

STARTCHAR code_170
ENCODING 170
SWIDTH 571 0
DWIDTH 8 0
BBX 8 13 0 -3
BITMAP
00
00
00
00
00
FF
FF
03
03
03
00
00
00
ENDCHAR

STARTCHAR code_171
ENCODING 171
SWIDTH 571 0
DWIDTH 8 0
BBX 8 13 0 -3
BITMAP
84
8C
88
98
90
37
21
63
46
CC
8F
00
00
ENDCHAR

STARTCHAR code_172
ENCODING 172
SWIDTH 571 0
DWIDTH 8 0
BBX 8 13 0 -3
BITMAP
82
86
8C
88
99
33
27
6D
49
DF
81
00
00
ENDCHAR

STARTCHAR code_173
ENCODING 173
SWIDTH 571 0
DWIDTH 8 0
BBX 8 13 0 -3
BITMAP
00
18
18
00
18
18
18
18
18
18
18
00
00
ENDCHAR

STARTCHAR code_174
ENCODING 174
SWIDTH 571 0
DWIDTH 8 0
BBX 8 13 0 -3
BITMAP
00
00
00
00
36
6C
D8
6C
36
00
00
00
00
ENDCHAR

STARTCHAR code_175
ENCODING 175
SWIDTH 571 0
DWIDTH 8 0
BBX 8 13 0 -3
BITMAP
00
00
00
00
6C
36
1B
36
6C
00
00
00
00
ENDCHAR

STARTCHAR code_176
ENCODING 176
SWIDTH 571 0
DWIDTH 8 0
BBX 8 13 0 -3
BITMAP
92
00
49
00
92
00
49
00
92
00
49
00
92
ENDCHAR

STARTCHAR code_177
ENCODING 177
SWIDTH 571 0
DWIDTH 8 0
BBX 8 13 0 -3
BITMAP
92
49
92
49
92
49
92
49
92
49
92
49
92
ENDCHAR

STARTCHAR code_178
ENCODING 178
SWIDTH 571 0
DWIDTH 8 0
BBX 8 13 0 -3
BITMAP
B6
DB
B6
DB
B6
DB
B6
DB
B6
DB
B6
DB
B6
ENDCHAR

STARTCHAR code_179
ENCODING 179
SWIDTH 571 0
DWIDTH 8 0
BBX 8 13 0 -3
BITMAP
18
18
18
18
18
18
18
18
18
18
18
18
18
ENDCHAR

STARTCHAR code_180
ENCODING 180
SWIDTH 571 0
DWIDTH 8 0
BBX 8 13 0 -3
BITMAP
18
18
18
18
18
F8
F8
18
18
18
18
18
18
ENDCHAR

STARTCHAR code_181
ENCODING 181
SWIDTH 571 0
DWIDTH 8 0
BBX 8 13 0 -3
BITMAP
18
18
18
18
F8
F8
18
F8
F8
18
18
18
18
ENDCHAR

STARTCHAR code_182
ENCODING 182
SWIDTH 571 0
DWIDTH 8 0
BBX 8 13 0 -3
BITMAP
36
36
36
36
36
F6
F6
36
36
36
36
36
36
ENDCHAR

STARTCHAR code_183
ENCODING 183
SWIDTH 571 0
DWIDTH 8 0
BBX 8 13 0 -3
BITMAP
00
00
00
00
00
FE
FE
36
36
36
36
36
36
ENDCHAR

STARTCHAR code_184
ENCODING 184
SWIDTH 571 0
DWIDTH 8 0
BBX 8 13 0 -3
BITMAP
00
00
00
00
F8
F8
18
F8
F8
18
18
18
18
ENDCHAR

STARTCHAR code_185
ENCODING 185
SWIDTH 571 0
DWIDTH 8 0
BBX 8 13 0 -3
BITMAP
36
36
36
36
F6
F6
06
F6
F6
36
36
36
36
ENDCHAR

STARTCHAR code_186
ENCODING 186
SWIDTH 571 0
DWIDTH 8 0
BBX 8 13 0 -3
BITMAP
36
36
36
36
36
36
36
36
36
36
36
36
36
ENDCHAR

STARTCHAR code_187
ENCODING 187
SWIDTH 571 0
DWIDTH 8 0
BBX 8 13 0 -3
BITMAP
00
00
00
00
FE
FE
06
F6
F6
36
36
36
36
ENDCHAR

STARTCHAR code_188
ENCODING 188
SWIDTH 571 0
DWIDTH 8 0
BBX 8 13 0 -3
BITMAP
36
36
36
36
F6
F6
06
FE
FE
00
00
00
00
ENDCHAR

STARTCHAR code_189
ENCODING 189
SWIDTH 571 0
DWIDTH 8 0
BBX 8 13 0 -3
BITMAP
36
36
36
36
36
FE
FE
00
00
00
00
00
00
ENDCHAR

STARTCHAR code_190
ENCODING 190
SWIDTH 571 0
DWIDTH 8 0
BBX 8 13 0 -3
BITMAP
18
18
18
18
F8
F8
18
F8
F8
00
00
00
00
ENDCHAR

STARTCHAR code_191
ENCODING 191
SWIDTH 571 0
DWIDTH 8 0
BBX 8 13 0 -3
BITMAP
00
00
00
00
00
F8
F8
18
18
18
18
18
18
ENDCHAR

STARTCHAR code_192
ENCODING 192
SWIDTH 571 0
DWIDTH 8 0
BBX 8 13 0 -3
BITMAP
18
18
18
18
18
1F
1F
00
00
00
00
00
00
ENDCHAR

STARTCHAR code_193
ENCODING 193
SWIDTH 571 0
DWIDTH 8 0
BBX 8 13 0 -3
BITMAP
18
18
18
18
18
FF
FF
00
00
00
00
00
00
ENDCHAR

STARTCHAR code_194
ENCODING 194
SWIDTH 571 0
DWIDTH 8 0
BBX 8 13 0 -3
BITMAP
00
00
00
00
00
FF
FF
18
18
18
18
18
18
ENDCHAR

STARTCHAR code_195
ENCODING 195
SWIDTH 571 0
DWIDTH 8 0
BBX 8 13 0 -3
BITMAP
18
18
18
18
18
1F
1F
18
18
18
18
18
18
ENDCHAR

STARTCHAR code_196
ENCODING 196
SWIDTH 571 0
DWIDTH 8 0
BBX 8 13 0 -3
BITMAP
00
00
00
00
00
FF
FF
00
00
00
00
00
00
ENDCHAR

STARTCHAR code_197
ENCODING 197
SWIDTH 571 0
DWIDTH 8 0
BBX 8 13 0 -3
BITMAP
18
18
18
18
18
FF
FF
18
18
18
18
18
18
ENDCHAR

STARTCHAR code_198
ENCODING 198
SWIDTH 571 0
DWIDTH 8 0
BBX 8 13 0 -3
BITMAP
18
18
18
18
1F
1F
18
1F
1F
18
18
18
18
ENDCHAR

STARTCHAR code_199
ENCODING 199
SWIDTH 571 0
DWIDTH 8 0
BBX 8 13 0 -3
BITMAP
36
36
36
36
36
37
37
36
36
36
36
36
36
ENDCHAR

STARTCHAR code_200
ENCODING 200
SWIDTH 571 0
DWIDTH 8 0
BBX 8 13 0 -3
BITMAP
36
36
36
36
37
37
30
3F
3F
00
00
00
00
ENDCHAR

STARTCHAR code_201
ENCODING 201
SWIDTH 571 0
DWIDTH 8 0
BBX 8 13 0 -3
BITMAP
00
00
00
00
3F
3F
30
37
37
36
36
36
36
ENDCHAR

STARTCHAR code_202
ENCODING 202
SWIDTH 571 0
DWIDTH 8 0
BBX 8 13 0 -3
BITMAP
36
36
36
36
F7
F7
00
FF
FF
00
00
00
00
ENDCHAR

STARTCHAR code_203
ENCODING 203
SWIDTH 571 0
DWIDTH 8 0
BBX 8 13 0 -3
BITMAP
00
00
00
00
FF
FF
00
F7
F7
36
36
36
36
ENDCHAR

STARTCHAR code_204
ENCODING 204
SWIDTH 571 0
DWIDTH 8 0
BBX 8 13 0 -3
BITMAP
36
36
36
36
37
37
30
37
37
36
36
36
36
ENDCHAR

STARTCHAR code_205
ENCODING 205
SWIDTH 571 0
DWIDTH 8 0
BBX 8 13 0 -3
BITMAP
00
00
00
00
FF
FF
00
FF
FF
00
00
00
00
ENDCHAR

STARTCHAR code_206
ENCODING 206
SWIDTH 571 0
DWIDTH 8 0
BBX 8 13 0 -3
BITMAP
36
36
36
36
F7
F7
00
F7
F7
36
36
36
36
ENDCHAR

STARTCHAR code_207
ENCODING 207
SWIDTH 571 0
DWIDTH 8 0
BBX 8 13 0 -3
BITMAP
18
18
18
18
FF
FF
00
FF
FF
00
00
00
00
ENDCHAR

STARTCHAR code_208
ENCODING 208
SWIDTH 571 0
DWIDTH 8 0
BBX 8 13 0 -3
BITMAP
36
36
36
36
36
FF
FF
00
00
00
00
00
00
ENDCHAR

STARTCHAR code_209
ENCODING 209
SWIDTH 571 0
DWIDTH 8 0
BBX 8 13 0 -3
BITMAP
00
00
00
00
FF
FF
00
FF
FF
18
18
18
18
ENDCHAR

STARTCHAR code_210
ENCODING 210
SWIDTH 571 0
DWIDTH 8 0
BBX 8 13 0 -3
BITMAP
00
00
00
00
00
FF
FF
36
36
36
36
36
36
ENDCHAR

STARTCHAR code_211
ENCODING 211
SWIDTH 571 0
DWIDTH 8 0
BBX 8 13 0 -3
BITMAP
36
36
36
36
36
3F
3F
00
00
00
00
00
00
ENDCHAR

STARTCHAR code_212
ENCODING 212
SWIDTH 571 0
DWIDTH 8 0
BBX 8 13 0 -3
BITMAP
18
18
18
18
1F
1F
18
1F
1F
00
00
00
00
ENDCHAR

STARTCHAR code_213
ENCODING 213
SWIDTH 571 0
DWIDTH 8 0
BBX 8 13 0 -3
BITMAP
00
00
00
00
1F
1F
18
1F
1F
18
18
18
18
ENDCHAR

STARTCHAR code_214
ENCODING 214
SWIDTH 571 0
DWIDTH 8 0
BBX 8 13 0 -3
BITMAP
00
00
00
00
00
1F
1F
36
36
36
36
36
36
ENDCHAR

STARTCHAR code_215
ENCODING 215
SWIDTH 571 0
DWIDTH 8 0
BBX 8 13 0 -3
BITMAP
36
36
36
36
36
FF
FF
36
36
36
36
36
36
ENDCHAR

STARTCHAR code_216
ENCODING 216
SWIDTH 571 0
DWIDTH 8 0
BBX 8 13 0 -3
BITMAP
18
18
18
18
FF
FF
18
FF
FF
18
18
18
18
ENDCHAR

STARTCHAR code_217
ENCODING 217
SWIDTH 571 0
DWIDTH 8 0
BBX 8 13 0 -3
BITMAP
18
18
18
18
18
F8
F8
00
00
00
00
00
00
ENDCHAR

STARTCHAR code_218
ENCODING 218
SWIDTH 571 0
DWIDTH 8 0
BBX 8 13 0 -3
BITMAP
00
00
00
00
00
1F
1F
18
18
18
18
18
18
ENDCHAR

STARTCHAR code_219
ENCODING 219
SWIDTH 571 0
DWIDTH 8 0
BBX 8 13 0 -3
BITMAP
FF
FF
FF
FF
FF
FF
FF
FF
FF
FF
FF
FF
FF
ENDCHAR

STARTCHAR code_220
ENCODING 220
SWIDTH 571 0
DWIDTH 8 0
BBX 8 13 0 -3
BITMAP
00
00
00
00
00
00
00
FF
FF
FF
FF
FF
FF
ENDCHAR

STARTCHAR code_221
ENCODING 221
SWIDTH 571 0
DWIDTH 8 0
BBX 8 13 0 -3
BITMAP
F0
F0
F0
F0
F0
F0
F0
F0
F0
F0
F0
F0
F0
ENDCHAR

STARTCHAR code_222
ENCODING 222
SWIDTH 571 0
DWIDTH 8 0
BBX 8 13 0 -3
BITMAP
0F
0F
0F
0F
0F
0F
0F
0F
0F
0F
0F
0F
0F
ENDCHAR

STARTCHAR code_223
ENCODING 223
SWIDTH 571 0
DWIDTH 8 0
BBX 8 13 0 -3
BITMAP
FF
FF
FF
FF
FF
FF
FF
00
00
00
00
00
00
ENDCHAR

STARTCHAR code_224
ENCODING 224
SWIDTH 571 0
DWIDTH 8 0
BBX 8 13 0 -3
BITMAP
00
00
00
02
7A
CE
CE
CE
CE
7A
02
00
00
ENDCHAR

STARTCHAR code_225
ENCODING 225
SWIDTH 571 0
DWIDTH 8 0
BBX 8 13 0 -3
BITMAP
00
3C
66
66
66
7C
66
66
66
7C
60
60
00
ENDCHAR

STARTCHAR code_226
ENCODING 226
SWIDTH 571 0
DWIDTH 8 0
BBX 8 13 0 -3
BITMAP
00
FE
C6
C0
C0
C0
C0
C0
C0
C0
00
00
00
ENDCHAR

STARTCHAR code_227
ENCODING 227
SWIDTH 571 0
DWIDTH 8 0
BBX 8 13 0 -3
BITMAP
00
07
FE
6C
6C
6C
6C
6C
6C
6C
00
00
00
ENDCHAR

STARTCHAR code_228
ENCODING 228
SWIDTH 571 0
DWIDTH 8 0
BBX 8 13 0 -3
BITMAP
FE
E2
70
38
1C
38
60
C2
FE
FE
00
00
00
ENDCHAR

STARTCHAR code_229
ENCODING 229
SWIDTH 571 0
DWIDTH 8 0
BBX 8 13 0 -3
BITMAP
00
00
00
00
7F
CC
CC
CC
FC
78
00
00
00
ENDCHAR

STARTCHAR code_230
ENCODING 230
SWIDTH 571 0
DWIDTH 8 0
BBX 8 13 0 -3
BITMAP
00
00
00
66
66
66
66
66
7E
7C
F0
E0
00
ENDCHAR

STARTCHAR code_231
ENCODING 231
SWIDTH 571 0
DWIDTH 8 0
BBX 8 13 0 -3
BITMAP
00
00
7E
FE
B0
30
70
60
60
60
00
00
00
ENDCHAR

STARTCHAR code_232
ENCODING 232
SWIDTH 571 0
DWIDTH 8 0
BBX 8 13 0 -3
BITMAP
00
3C
18
7E
E7
C3
E7
7E
18
3C
00
00
00
ENDCHAR

STARTCHAR code_233
ENCODING 233
SWIDTH 571 0
DWIDTH 8 0
BBX 8 13 0 -3
BITMAP
00
7C
FE
C6
C6
FE
C6
C6
FE
7C
00
00
00
ENDCHAR

STARTCHAR code_234
ENCODING 234
SWIDTH 571 0
DWIDTH 8 0
BBX 8 13 0 -3
BITMAP
00
00
00
7E
E7
C3
E7
66
66
E7
00
00
00
ENDCHAR

STARTCHAR code_235
ENCODING 235
SWIDTH 571 0
DWIDTH 8 0
BBX 8 13 0 -3
BITMAP
7C
64
70
38
78
FC
84
84
FC
78
00
00
00
ENDCHAR

STARTCHAR code_236
ENCODING 236
SWIDTH 571 0
DWIDTH 8 0
BBX 8 13 0 -3
BITMAP
00
00
00
EE
BA
BA
EE
00
00
00
00
00
00
ENDCHAR

STARTCHAR code_237
ENCODING 237
SWIDTH 571 0
DWIDTH 8 0
BBX 8 13 0 -3
BITMAP
00
00
7C
CE
DE
D6
D6
F6
E6
7C
00
00
00
ENDCHAR

STARTCHAR code_238
ENCODING 238
SWIDTH 571 0
DWIDTH 8 0
BBX 8 13 0 -3
BITMAP
00
3E
70
E0
C0
FE
C0
E0
70
3E
00
00
00
ENDCHAR

STARTCHAR code_239
ENCODING 239
SWIDTH 571 0
DWIDTH 8 0
BBX 8 13 0 -3
BITMAP
00
7C
FE
C6
C6
C6
C6
C6
C6
C6
00
00
00
ENDCHAR

STARTCHAR code_240
ENCODING 240
SWIDTH 571 0
DWIDTH 8 0
BBX 8 13 0 -3
BITMAP
00
FE
FE
00
FE
FE
00
FE
FE
00
00
00
00
ENDCHAR

STARTCHAR code_241
ENCODING 241
SWIDTH 571 0
DWIDTH 8 0
BBX 8 13 0 -3
BITMAP
00
30
30
FC
FC
30
30
00
FC
FC
00
00
00
ENDCHAR

STARTCHAR code_242
ENCODING 242
SWIDTH 571 0
DWIDTH 8 0
BBX 8 13 0 -3
BITMAP
00
60
70
38
1C
38
70
60
00
FC
FC
00
00
ENDCHAR

STARTCHAR code_243
ENCODING 243
SWIDTH 571 0
DWIDTH 8 0
BBX 8 13 0 -3
BITMAP
00
0C
1C
38
70
38
1C
0C
00
7E
7E
00
00
ENDCHAR

STARTCHAR code_244
ENCODING 244
SWIDTH 571 0
DWIDTH 8 0
BBX 8 13 0 -3
BITMAP
0E
1F
1B
1B
18
18
18
18
18
18
18
18
18
ENDCHAR

STARTCHAR code_245
ENCODING 245
SWIDTH 571 0
DWIDTH 8 0
BBX 8 13 0 -3
BITMAP
18
18
18
18
18
18
18
18
D8
D8
F8
70
00
ENDCHAR

STARTCHAR code_246
ENCODING 246
SWIDTH 571 0
DWIDTH 8 0
BBX 8 13 0 -3
BITMAP
00
00
30
30
00
FC
FC
00
30
30
00
00
00
ENDCHAR

STARTCHAR code_247
ENCODING 247
SWIDTH 571 0
DWIDTH 8 0
BBX 8 13 0 -3
BITMAP
00
00
32
7E
CC
00
32
7E
CC
00
00
00
00
ENDCHAR

STARTCHAR code_248
ENCODING 248
SWIDTH 571 0
DWIDTH 8 0
BBX 8 13 0 -3
BITMAP
00
00
00
38
7C
6C
7C
38
00
00
00
00
00
ENDCHAR

STARTCHAR code_249
ENCODING 249
SWIDTH 571 0
DWIDTH 8 0
BBX 8 13 0 -3
BITMAP
00
00
18
3C
3C
18
00
00
00
00
00
00
00
ENDCHAR

STARTCHAR code_250
ENCODING 250
SWIDTH 571 0
DWIDTH 8 0
BBX 8 13 0 -3
BITMAP
00
00
00
00
18
18
00
00
00
00
00
00
00
ENDCHAR

STARTCHAR code_251
ENCODING 251
SWIDTH 571 0
DWIDTH 8 0
BBX 8 13 0 -3
BITMAP
00
00
00
0F
08
18
10
30
A0
E0
40
00
00
ENDCHAR

STARTCHAR code_252
ENCODING 252
SWIDTH 571 0
DWIDTH 8 0
BBX 8 13 0 -3
BITMAP
D8
FC
EC
CC
CC
00
00
00
00
00
00
00
00
ENDCHAR

STARTCHAR code_253
ENCODING 253
SWIDTH 571 0
DWIDTH 8 0
BBX 8 13 0 -3
BITMAP
F0
90
30
60
F8
00
00
00
00
00
00
00
00
ENDCHAR

STARTCHAR code_254
ENCODING 254
SWIDTH 571 0
DWIDTH 8 0
BBX 8 13 0 -3
BITMAP
00
00
00
3E
3E
3E
3E
3E
3E
3E
00
00
00
ENDCHAR

STARTCHAR code_255
ENCODING 255
SWIDTH 571 0
DWIDTH 8 0
BBX 8 13 0 -3
BITMAP
00
00
00
00
00
00
00
00
00
00
00
00
00
ENDCHAR
ENDFONT
